<svg width="33" height="33" viewBox="0 0 33 33" fill="none" xmlns="http://www.w3.org/2000/svg">
<path d="M25.9946 7.73803L19.6917 4L8.09426 23.5549L14.3971 27.293L25.9946 7.73803Z" stroke="#25B672" stroke-width="2" stroke-miterlimit="10" stroke-linecap="round" stroke-linejoin="round"/>
<mask id="path-2-inside-1_26_40" fill="white">
<path d="M8.42869 30.1801L8.35541 27.3613L10.9373 28.8934L8.42869 30.1801Z"/>
</mask>
<path d="M8.42869 30.1801L8.35541 27.3613L10.9373 28.8934L8.42869 30.1801Z" fill="#F8FAF5"/>
<path d="M8.42869 30.1801L6.42936 30.232L6.51201 33.4109L9.34144 31.9596L8.42869 30.1801ZM8.35541 27.3613L9.37604 25.6414L6.26198 23.7935L6.35608 27.4133L8.35541 27.3613ZM10.9373 28.8934L11.85 30.673L15.0712 29.0208L11.9579 27.1734L10.9373 28.8934ZM8.42869 30.1801L10.428 30.1281L10.3547 27.3094L8.35541 27.3613L6.35608 27.4133L6.42936 30.232L8.42869 30.1801ZM8.35541 27.3613L7.33478 29.0813L9.91663 30.6134L10.9373 28.8934L11.9579 27.1734L9.37604 25.6414L8.35541 27.3613ZM10.9373 28.8934L10.0245 27.1138L7.51593 28.4005L8.42869 30.1801L9.34144 31.9596L11.85 30.673L10.9373 28.8934Z" fill="#25B672" mask="url(#path-2-inside-1_26_40)"/>
<path d="M8.18065 30.5949L8 23.7168L14.3038 27.4541L8.18065 30.5949Z" stroke="#25B672" stroke-width="2" stroke-miterlimit="10" stroke-linecap="round" stroke-linejoin="round"/>
</svg>
