<svg width="45" height="45" viewBox="0 0 45 45" fill="none" xmlns="http://www.w3.org/2000/svg">
<path d="M40.33 24.9062V19.4238L35.1761 19.1519C34.8499 17.7358 34.2896 16.3622 33.4952 15.095L36.9493 11.258L33.072 7.38074L29.235 10.8348C27.9655 10.0404 26.5943 9.48012 25.1781 9.15386L24.9062 4H19.4238L19.1519 9.15386C17.7358 9.48012 16.3645 10.0404 15.095 10.8348L11.258 7.38074L7.38074 11.258L10.8348 15.095C10.0404 16.3645 9.48012 17.7358 9.15386 19.1519L4 19.4238V24.9062L9.15386 25.1781C9.48012 26.5943 10.0404 27.9655 10.8348 29.235L7.38074 33.072L11.258 36.9493L15.095 33.4952C16.3645 34.2896 17.7358 34.8499 19.1519 35.1761L19.4238 40.33H24.9062L25.1781 35.1761C26.5943 34.8499 27.9655 34.2896 29.235 33.4952L33.072 36.9493L36.9493 33.072L33.4952 29.235C34.2896 27.9655 34.8499 26.5943 35.1761 25.1781L40.33 24.9062Z" stroke="#F8FAF5" stroke-width="2" stroke-miterlimit="10" stroke-linecap="round" stroke-linejoin="round"/>
<path d="M22.1662 29.937C26.458 29.937 29.9372 26.4578 29.9372 22.166C29.9372 17.8742 26.458 14.395 22.1662 14.395C17.8744 14.395 14.3952 17.8742 14.3952 22.166C14.3952 26.4578 17.8744 29.937 22.1662 29.937Z" stroke="#F8FAF5" stroke-width="2" stroke-miterlimit="10" stroke-linecap="round" stroke-linejoin="round"/>
</svg>
