<svg width="45" height="45" viewBox="0 0 45 45" fill="none" xmlns="http://www.w3.org/2000/svg">
<path d="M19.3363 33.9721C18.8547 31.7385 18.2165 29.5029 17.4257 27.2692C18.488 26.3615 19.1619 25.0118 19.1619 23.5036C19.1619 20.7685 16.9441 18.5508 14.209 18.5508C11.474 18.5508 9.25623 20.7685 9.25623 23.5036C9.25623 25.0158 9.93603 26.3694 11.0043 27.2772C10.2076 29.3978 9.56541 31.6552 9.0739 34.0514C8.66166 36.061 10.0213 38.0073 11.9794 38.1738C13.4262 38.2966 14.9245 38.2828 16.4764 38.1341C18.4365 37.9458 19.7683 35.9798 19.3363 33.9721Z" stroke="#F8FAF5" stroke-width="2" stroke-miterlimit="10" stroke-linecap="round" stroke-linejoin="round"/>
<path d="M35.3838 33.9721C34.9022 31.7385 34.264 29.5029 33.4732 27.2692C34.5355 26.3615 35.2094 25.0118 35.2094 23.5036C35.2094 20.7685 32.9916 18.5508 30.2566 18.5508C27.5215 18.5508 25.3038 20.7685 25.3038 23.5036C25.3038 25.0158 25.9836 26.3694 27.0518 27.2772C26.2551 29.3978 25.6129 31.6552 25.1214 34.0514C24.7092 36.061 26.0688 38.0073 28.0269 38.1738C29.4737 38.2966 30.972 38.2828 32.5239 38.1341C34.484 37.9458 35.8159 35.9798 35.3838 33.9721Z" stroke="#F8FAF5" stroke-width="2" stroke-miterlimit="10" stroke-linecap="round" stroke-linejoin="round"/>
<path d="M26.6194 19.4286C26.2765 18.1919 25.8861 16.9552 25.4481 15.7185C26.5104 14.8107 27.1842 13.4611 27.1842 11.9528C27.1842 9.21777 24.9665 7 22.2314 7C19.4964 7 17.2786 9.21777 17.2786 11.9528C17.2786 13.465 17.9584 14.8187 19.0266 15.7264C18.551 16.9928 18.1308 18.3088 17.7642 19.6724" stroke="#F8FAF5" stroke-width="2" stroke-miterlimit="10" stroke-linecap="round" stroke-linejoin="round"/>
<path d="M18.454 26.0541C18.898 26.3712 19.4252 26.5753 20.0059 26.6249C21.4527 26.7478 22.951 26.7339 24.5028 26.5852C25.0617 26.5317 25.5691 26.3316 26.0012 26.0283" stroke="#F8FAF5" stroke-width="2" stroke-miterlimit="10" stroke-linecap="round" stroke-linejoin="round"/>
</svg>
